# AST/ASF file generated using VICON BodyLanguage
# -----------------------------------------------
:version 1.10
:name VICON
:units
  mass 1.0
  length 0.45
  angle deg
:documentation
   .ast/.asf automatically generated from VICON data using
   VICON BodyBuilder and BodyLanguage model FoxedUp or BRILLIANT.MOD
:root
   order TX TY TZ RX RY RZ
   axis XYZ
   position 0 0 0  
   orientation 0 0 0 
:bonedata
  begin
     id 1 
     name lhipjoint
     direction 0.584852 -0.759097 0.285867 
     length 2.43633 
     axis 0 0 0  XYZ
  end
  begin
     id 2 
     name lfemur
     direction 0.34202 -0.939693 0  
     length 7.14704  
     axis 0 0 20  XYZ
    dof rx ry rz
    limits (-160.0 20.0)
           (-70.0 70.0)
           (-60.0 70.0)
  end
  begin
     id 3 
     name ltibia
     direction 0.342022 -0.939692 0   
     length 7.68483   
     axis 0 0 20   XYZ
    dof rx
    limits (-10.0 170.0)
  end
  begin
     id 4 
     name lfoot
     direction 0.0999605 -0.274639 0.956337   
     length 2.40452   
     axis -90 7.62852e-016 20   XYZ
    dof rx rz
    limits (-45.0 90.0)
           (-70.0 20.0)
  end
  begin
     id 5 
     name ltoes
     direction 1.53468e-011 -4.21881e-011 1   
     length 1.19837   
     axis -90 7.62852e-016 20   XYZ
    dof rx
    limits (-90.0 20.0)
  end
  begin
     id 6 
     name rhipjoint
     direction -0.569886 -0.769002 0.289597   
     length 2.40495  
     axis 0 0 0  XYZ 
  end
  begin
     id 7 
     name rfemur
     direction -0.34202 -0.939693 0   
     length 7.45086   
     axis 0 0 -20   XYZ
    dof rx ry rz
    limits (-160.0 20.0)
           (-70.0 70.0)
           (-70.0 60.0)
  end
  begin
     id 8 
     name rtibia
     direction -0.34202 -0.939693 0   
     length 7.76831   
     axis 0 0 -20   XYZ
    dof rx
    limits (-10.0 170.0)
 end
 begin
     id 9 
     name rfoot
     direction -0.0798572 -0.219406 0.97236   
     length 2.35911  
     axis -90 -7.62852e-016 -20   XYZ
    dof rx rz
    limits (-45.0 90.0)
           (-20.0 70.0)
  end
  begin
     id 10 
     name rtoes
     direction -1.53469e-011 -4.21728e-011 1   
     length 1.18261   
     axis -90 -7.62852e-016 -20   XYZ
    dof rx
    limits (-90.0 20.0)
  end
  begin
     id 11 
     name lowerback
     direction 0.0242088 0.999437 0.0232389   
     length 2.1561   
     axis 0 0 0   XYZ
    dof rx ry rz
    limits (-20.0 45.0)
           (-30.0 30.0)
           (-30.0 30.0)
  end
  begin
     id 12 
     name upperback
     direction -0.0356893 0.999013 -0.0264323   
     length 2.14431   
     axis 0 0 0   XYZ
    dof rx ry rz
    limits (-20.0 45.0)
           (-30.0 30.0)
           (-30.0 30.0)
  end
  begin
     id 13 
     name thorax
     direction -0.0472163 0.998194 -0.0371284   
     length 2.16169   
     axis 0 0 0   XYZ
    dof rx ry rz
    limits (-20.0 45.0)
           (-30.0 30.0)
           (-30.0 30.0)
  end
  begin
     id 14 
     name lowerneck
     direction 0.00863244 0.999921 0.00911972   
     length 1.58651   
     axis 0 0 0   XYZ
    dof rx ry rz
    limits (-20.0 45.0)
           (-30.0 30.0)
           (-30.0 30.0)
  end
  begin
     id 15 
     name upperneck
     direction 0.149523 0.979068 -0.138086   
     length 1.57486   
     axis 0 0 0   XYZ
    dof rx ry rz
    limits (-20.0 45.0)
           (-30.0 30.0)
           (-30.0 30.0)
  end
  begin
     id 16
     name head
     direction 0.0445219 0.997708 -0.0509576  
     length 1.6019  
     axis 0 0 0   XYZ
    dof rx ry rz
    limits (-20.0 45.0)
           (-30.0 30.0)
           (-30.0 30.0)
  end
  begin
     id 17 
     name lclavicle
     direction 0.911271 0.381667 -0.154644  
     length 3.80848  
     axis 0 0 0   XYZ
    dof ry rz
    limits (-20.0 10.0)
           (0.0 20.0)
  end
  begin
     id 18 
     name lhumerus
     direction 1 -4.49003e-011 2.1308e-027   
     length 5.19069   
     axis 180 -30 -90   XYZ
    dof rx ry rz
    limits (-60.0 90.0)
           (-90.0 90.0)
           (-90.0 90.0)
  end
  begin
     id 19
     name lradius
     direction 1 -4.48914e-011 4.01554e-027   
     length 3.30016   
     axis 180 -30 -90   XYZ
    dof rx
    limits (-10.0 170.0)
  end
  begin
     id 20
     name lwrist
     direction 1 -4.49003e-011 1.1934e-026   
     length 1.65008   
     axis -8.46377e-015 90 90   XYZ
    dof ry
    limits (-180.0 0.0)
 end
  begin
     id 21 
     name lhand
     direction 1 -4.49034e-011 2.38659e-026   
     length 0.707698   
     axis -1.52313e-014 90 90   XYZ
    dof rx rz
    limits (-90.0 90.0)
           (-45.0 45.0)
  end
  begin
     id 22 
     name lfingers
     direction 1 -4.48691e-011 4.77775e-026   
     length 0.570564   
     axis -3.04623e-014 90 90   XYZ
    dof rx
    limits (0.0 90.0)
  end
  begin
     id 23
     name lthumb
     direction 0.707107 -6.34832e-011 0.707107   
     length 0.819219   
     axis -90 45 -1.62303e-014   XYZ
    dof rx rz
    limits (-45.0 45.0)
           (-45.0 45.0)
  end
  begin
     id 24 
     name rclavicle
     direction -0.815579 0.573708 -0.0754329   
     length 3.54371  
     axis 0 0 0   XYZ 
    dof ry rz
    limits (-10.0 20.0)
           (-20.0 0.0)
  end
  begin
     id 25 
     name rhumerus
     direction -1 -4.48956e-011 3.05351e-028  
     length 5.23924   
     axis 180 30 90   XYZ
    dof rx ry rz
    limits (-90.0 60.0)
           (-90.0 90.0)
           (-90.0 90.0)
  end
  begin
     id 26 
     name rradius
     direction -1 -4.49013e-011 3.53849e-027   
     length 3.32953   
     axis 180 30 90   XYZ
    dof rx
    limits (-10.0 170.0)
  end
  begin
     id 27 
     name rwrist
     direction -1 -4.48901e-011 1.19374e-026   
     length 1.66477   
     axis -8.46377e-015 -90 -90   XYZ
    dof ry
    limits (-180.0 0.0)
  end
  begin
     id 28
     name rhand
     direction -1 -4.48877e-011 2.38764e-026   
     length 0.607414   
     axis -1.52313e-014 -90 -90   XYZ
    dof rx rz
    limits (-90.0 90.0)
           (-45.0 45.0)
  end
  begin
     id 29
     name rfingers
     direction -1 -4.48882e-011 4.77521e-026   
     length 0.489712   
     axis -3.04623e-014 -90 -90   XYZ
    dof rx
    limits (0.0 90.0)
  end
  begin
     id 30
     name rthumb
     direction -0.707107 -6.34974e-011 0.707107   
     length 0.703132   
     axis -90 -45 1.62303e-014   XYZ
    dof rx rz
    limits (-45.0 45.0)
           (-45.0 45.0)
  end
:hierarchy
  begin
    root lhipjoint rhipjoint lowerback
    lhipjoint lfemur
    lfemur ltibia
    ltibia lfoot
    lfoot ltoes
    rhipjoint rfemur
    rfemur rtibia
    rtibia rfoot
    rfoot rtoes
    lowerback upperback
    upperback thorax
    thorax lowerneck lclavicle rclavicle
    lowerneck upperneck
    upperneck head
    lclavicle lhumerus
    lhumerus lradius
    lradius lwrist
    lwrist lhand lthumb
    lhand lfingers
    rclavicle rhumerus
    rhumerus rradius
    rradius rwrist
    rwrist rhand rthumb
    rhand rfingers
  end

#!OML:ASF E:\VariousWalksJay\Project 1\Capture day 1\Session 1\Actor2.ASF
:FULLY-SPECIFIED
:DEGREES
39
root 28.0701 16.7927 -30.4312 17.2021 -41.199 -3.53467
lowerback 17.2337 -3.00844 4.59164
upperback 13.2963 -3.76031 -3.38139
thorax 4.21141 -1.59185 -5.69855
lowerneck -6.59669 -2.24081 -2.11364
upperneck -8.03614 -2.52276 12.298
head -1.22427 -1.43128 4.42527
rclavicle 3.89618e-014 1.66979e-014
rhumerus -34.7135 17.1587 -93.0818
rradius 64.0381
rwrist 3.0199
rhand -25.6241 -6.95448
rfingers 7.12502
rthumb 0.908843 -36.9323
lclavicle 3.89618e-014 1.66979e-014
lhumerus 4.3615 -28.8607 72.2159
lradius 73.8368
lwrist 59.2046
lhand -35.6869 18.7459
lfingers 7.12502
lthumb -8.80763 48.5421
rfemur -45.4237 5.062 20.552
rtibia 51.7476
rfoot -21.2116 -7.77957
rtoes -3.35627
lfemur -45.1125 11.326 -24.6835
ltibia 48.8547
lfoot -19.4181 7.78172
ltoes -3.54178
40
root 28.0712 16.7924 -30.4326 17.1828 -41.1813 -3.51879
lowerback 17.2264 -3.02047 4.6144
upperback 13.3021 -3.77343 -3.39887
thorax 4.21809 -1.59573 -5.72901
lowerneck -6.58254 -2.2331 -2.10686
upperneck -8.0549 -2.51097 12.2936
head -1.23406 -1.42667 4.42319
rclavicle 7.71285e-014 -5.96354e-014
rhumerus -34.7135 17.1693 -93.1144
rradius 64.0386
rwrist 3.00041
rhand -25.6014 -6.93434
rfingers 7.12502
rthumb 0.930751 -36.9121
lclavicle 7.71285e-014 -5.96354e-014
lhumerus 4.39971 -28.8593 72.146
lradius 73.8327
lwrist 59.2301
lhand -35.7221 18.6594
lfingers 7.12502
lthumb -8.84166 48.4542
rfemur -45.4248 5.09645 20.5277
rtibia 51.7574
rfoot -21.2139 -7.8278
rtoes -3.38295
lfemur -45.1042 11.3443 -24.7011
ltibia 48.8397
lfoot -19.4137 7.73629
ltoes -3.53555
41
root 28.0721 16.7922 -30.4342 17.1679 -41.1624 -3.50626
lowerback 17.2273 -3.03023 4.62422
upperback 13.3023 -3.78464 -3.40412
thorax 4.21571 -1.60043 -5.73852
lowerneck -6.57649 -2.22795 -2.10898
upperneck -8.06461 -2.50325 12.2821
head -1.23907 -1.42307 4.41988
rclavicle 9.14409e-014 -5.96354e-014
rhumerus -34.7217 17.1965 -93.1324
rradius 64.044
rwrist 2.9786
rhand -25.5792 -6.91819
rfingers 7.12502
rthumb 0.952206 -36.8958
lclavicle 9.14409e-014 -5.96354e-014
lhumerus 4.4286 -28.8548 72.0991
lradius 73.8262
lwrist 59.2534
lhand -35.7565 18.5965
lfingers 7.12502
lthumb -8.87481 48.3899
rfemur -45.4274 5.13083 20.507
rtibia 51.7655
rfoot -21.2159 -7.87491
rtoes -3.39782
lfemur -45.0999 11.369 -24.718
ltibia 48.8254
lfoot -19.4074 7.68493
ltoes -3.53523
42
root 28.0729 16.7922 -30.4359 17.1538 -41.1441 -3.49583
lowerback 17.2347 -3.03826 4.62675
upperback 13.3002 -3.79416 -3.40355
thorax 4.20819 -1.60525 -5.73742
lowerneck -6.57682 -2.22455 -2.11283
upperneck -8.06862 -2.49855 12.2662
head -1.24086 -1.42046 4.41498
rclavicle 1.59028e-014 -1.35174e-014
rhumerus -34.7361 17.2344 -93.143
rradius 64.0564
rwrist 2.95317
rhand -25.5555 -6.90799
rfingers 7.12502
rthumb 0.975014 -36.8855
lclavicle 1.59028e-014 -1.35174e-014
lhumerus 4.45813 -28.8535 72.0569
lradius 73.8191
lwrist 59.2826
lhand -35.8351 18.4613
lfingers 7.12502
lthumb -8.95069 48.2514
rfemur -45.4279 5.164 20.4893
rtibia 51.7711
rfoot -21.2165 -7.91774
rtoes -3.40419
lfemur -45.0953 11.3954 -24.7325
ltibia 48.8111
lfoot -19.4 7.63284
ltoes -3.53222
43
root 28.0738 16.7922 -30.4378 17.141 -41.1219 -3.48442
lowerback 17.2465 -3.04624 4.62257
upperback 13.2951 -3.80409 -3.39702
thorax 4.19561 -1.61118 -5.72565
lowerneck -6.58309 -2.22216 -2.11855
upperneck -8.06804 -2.49571 12.2471
head -1.23994 -1.41831 4.4091
rclavicle 5.24792e-014 -3.65764e-014
rhumerus -34.7549 17.2804 -93.1459
rradius 64.0717
rwrist 2.92701
rhand -25.5347 -6.90731
rfingers 7.12502
rthumb 0.995134 -36.8847
lclavicle 5.24792e-014 -3.65764e-014
lhumerus 4.48184 -28.8482 72.0276
lradius 73.813
lwrist 59.3035
lhand -35.8947 18.356
lfingers 7.12502
lthumb -9.00818 48.1436
rfemur -45.4303 5.1885 20.4736
rtibia 51.7752
rfoot -21.2157 -7.95518
rtoes -3.40382
lfemur -45.0944 11.4201 -24.7478
ltibia 48.7972
lfoot -19.3909 7.57873
ltoes -3.53261
44
root 28.0746 16.7924 -30.4398 17.1279 -41.098 -3.47283
lowerback 17.2609 -3.05459 4.61941
upperback 13.2896 -3.81423 -3.39118
thorax 4.18102 -1.61718 -5.71501
lowerneck -6.59542 -2.22148 -2.11956
upperneck -8.06269 -2.49596 12.229
head -1.23618 -1.41752 4.40238
rclavicle 7.15625e-015 8.98507e-014
rhumerus -34.7767 17.3275 -93.149
rradius 64.0919
rwrist 2.8984
rhand -25.5126 -6.90718
rfingers 7.12502
rthumb 1.01646 -36.8845
lclavicle 7.15625e-015 8.98507e-014
lhumerus 4.5033 -28.8475 71.9991
lradius 73.8094
lwrist 59.32
lhand -35.9628 18.2356
lfingers 7.12502
lthumb -9.07391 48.0204
rfemur -45.4317 5.20395 20.4612
rtibia 51.7777
rfoot -21.2131 -7.98593
rtoes -3.39834
lfemur -45.0932 11.4402 -24.7618
ltibia 48.7833
lfoot -19.381 7.53035
ltoes -3.53516
45
root 28.0755 16.7925 -30.442 17.1188 -41.0738 -3.46404
lowerback 17.2708 -3.06391 4.624
upperback 13.285 -3.82489 -3.38978
thorax 4.16917 -1.62259 -5.71375
lowerneck -6.59874 -2.2204 -2.11857
upperneck -8.06624 -2.49465 12.2187
head -1.23701 -1.41677 4.39846
rclavicle -5.24792e-014 2.78299e-014
rhumerus -34.7984 17.3728 -93.1581
rradius 64.1145
rwrist 2.86867
rhand -25.4921 -6.91434
rfingers 7.12502
rthumb 1.03629 -36.8916
lclavicle -5.24792e-014 2.78299e-014
lhumerus 4.52528 -28.8541 71.9634
lradius 73.8103
lwrist 59.3307
lhand -36.0164 18.1394
lfingers 7.12502
lthumb -9.12561 47.922
rfemur -45.436 5.21151 20.4533
rtibia 51.7796
rfoot -21.2088 -8.00789
rtoes -3.38021
lfemur -45.0965 11.4621 -24.7749
ltibia 48.77
lfoot -19.3687 7.48224
ltoes -3.53871
